<?xml version="1.0" encoding="UTF-8" standalone="no"?>
<svg
   xml:space="preserve"
   width="120"
   height="60"
   version="1.1"
   id="svg5"
   sodipodi:docname="banner.svg"
   inkscape:version="1.3.2 (091e20e, 2023-11-25)"
   xmlns:inkscape="http://www.inkscape.org/namespaces/inkscape"
   xmlns:sodipodi="http://sodipodi.sourceforge.net/DTD/sodipodi-0.dtd"
   xmlns="http://www.w3.org/2000/svg"
   xmlns:svg="http://www.w3.org/2000/svg"><defs
   id="defs5" /><sodipodi:namedview
   id="namedview5"
   pagecolor="#ffffff"
   bordercolor="#000000"
   borderopacity="0.25"
   inkscape:showpageshadow="2"
   inkscape:pageopacity="0.0"
   inkscape:pagecheckerboard="0"
   inkscape:deskcolor="#d1d1d1"
   inkscape:zoom="1"
   inkscape:cx="60"
   inkscape:cy="30.5"
   inkscape:window-width="1648"
   inkscape:window-height="942"
   inkscape:window-x="1841"
   inkscape:window-y="25"
   inkscape:window-maximized="0"
   inkscape:current-layer="svg5" />
    <path
   d="m 29.607166,42.623136 c -11.496758,0 -18.09481,-11.192701 -19.236715,-13.304212 1.037175,-2.118269 7.064273,-13.263672 19.236715,-13.263672 12.172443,0 18.199542,11.142025 19.236717,13.263672 -1.141906,2.111511 -7.743336,13.304212 -19.236717,13.304212"
   style="fill:#fafafa;stroke-width:0.337842"
   id="path1" />
    <path
   d="m 29.607166,16.879586 c 5.341281,0 10.081202,2.168945 14.088006,6.449402 2.239892,2.39192 3.625043,4.817625 4.219646,5.969666 -1.523667,2.699356 -7.787256,12.49677 -18.307652,12.49677 -5.027086,0 -9.672412,-2.17908 -13.814353,-6.476429 -2.327731,-2.415569 -3.841262,-4.868301 -4.493297,-6.020341 0.591223,-1.152041 1.979753,-3.581124 4.219645,-5.969666 4.006805,-4.280457 8.746726,-6.449402 14.088005,-6.449402 m 0,-1.648668 c -14.108275,0 -20.1556449,14.108276 -20.1556449,14.108276 0,0 6.8412979,14.108277 20.1556449,14.108277 13.314349,0 20.152268,-14.108277 20.152268,-14.108277 0,0 -6.047369,-14.108276 -20.152268,-14.108276"
   style="fill:#b0bec5;stroke-width:0.337842"
   id="path2" />
    <path
   d="m 29.607166,20.217464 c 9.111596,0 15.36167,5.577769 18.128596,9.361598 0.324328,0.442573 0.672305,-1.685831 0.378382,-2.148674 -2.64868,-4.141942 -8.584562,-11.118376 -18.503599,-11.118376 -9.919037,0 -15.861675,6.979813 -18.510356,11.121754 -0.2973,0.462843 0.101353,2.30746 0.476357,1.905428 2.88517,-3.09801 8.915647,-9.12173 18.03062,-9.12173"
   style="fill:#b0bec5;stroke-width:0.337842"
   id="path3" />
    <path
   id="circle3"
   style="fill:#9c7a63;stroke-width:0.337842"
   d="M 40.806625,28.254722 A 11.199459,11.199459 0 0 1 29.607166,39.454182 11.199459,11.199459 0 0 1 18.407707,28.254722 11.199459,11.199459 0 0 1 29.607166,17.055263 11.199459,11.199459 0 0 1 40.806625,28.254722 Z" /><path
   d="m 29.607166,20.217464 c 3.672342,0 6.878461,0.905416 9.581196,2.236513 -1.962861,-3.236525 -5.520336,-5.395335 -9.581196,-5.395335 -4.148697,0 -7.770363,2.260163 -9.702818,5.611554 2.706114,-1.425693 5.939261,-2.452732 9.702818,-2.452732"
   style="fill:#806451;stroke-width:0.337842"
   id="path4" /><path
   id="circle4"
   style="fill:#212121;stroke-width:0.337842"
   d="m 34.820066,28.254722 a 5.2129002,5.2129002 0 0 1 -5.2129,5.212901 5.2129002,5.2129002 0 0 1 -5.2129,-5.212901 5.2129002,5.2129002 0 0 1 5.2129,-5.2129 5.2129002,5.2129002 0 0 1 5.2129,5.2129 z" /><circle
   cx="37.897808"
   cy="27.774986"
   r="2.608139"
   style="fill:#d9baa5;stroke-width:0.337842"
   id="circle5" />
    <path
   d="m 10.313018,30.423667 c -0.175678,0 -0.3547341,-0.04392 -0.5202766,-0.135137 A 1.0834589,1.0834589 0 0 1 9.3636822,28.818918 C 9.6508478,28.295263 16.552957,15.234296 29.607166,15.234296 c 13.05421,0 19.753615,12.800829 20.030645,13.314348 0.283788,0.527033 0.09122,1.182447 -0.435816,1.469613 -0.527033,0.283786 -1.182447,0.09122 -1.469612,-0.435817 -0.06081,-0.114866 -6.378455,-11.439325 -18.128595,-11.439325 -11.753518,0 -18.280623,11.60149 -18.344813,11.719734 a 1.0777156,1.0777156 0 0 1 -0.945957,0.560818"
   style="fill:#616161;stroke-width:0.337842"
   id="path5" />
<path
   style="font-weight:600;font-size:21.5779px;line-height:1;font-family:'Gill Sans';-inkscape-font-specification:'Gill Sans Semi-Bold';fill:#1a1a1a;stroke-width:1.15596"
   d="m 69.080585,12.23105 q 2.149361,0 4.140681,1.07468 v 2.52866 q -2.28633,-1.380227 -4.056392,-1.380227 -1.074681,0 -1.685774,0.421444 -0.600556,0.410907 -0.600556,1.106288 0,0.832351 1.127361,1.538269 0.316082,0.210721 2.433835,1.180041 1.812206,0.853423 2.612949,1.896495 0.800742,1.043073 0.800742,2.507588 0,1.896495 -1.369691,3.066001 -1.359155,1.158969 -3.529588,1.158969 -1.411835,0 -2.433835,-0.305547 -1.011464,-0.316082 -2.275794,-1.07468 v -2.802598 q 2.360082,1.959711 4.446227,1.959711 1.043072,0 1.685773,-0.453051 0.642702,-0.453052 0.642702,-1.201114 0,-1.022 -1.116825,-1.664701 -0.927176,-0.505732 -2.391691,-1.21165 -1.738454,-0.790206 -2.602413,-1.843815 -0.853423,-1.053608 -0.853423,-2.444371 0,-1.854351 1.380227,-2.950104 1.380227,-1.106288 3.645485,-1.106288 z m 8.31297,0.189649 4.161753,9.450867 4.056392,-9.450867 h 2.981712 L 82.092648,27.329258 H 81.102256 L 74.390771,12.420699 Z M 97.612301,12.23105 q 2.718309,0 5.394479,1.211649 v 2.602413 q -2.67617,-1.359155 -5.268046,-1.359155 -1.612021,0 -2.865815,0.642701 -1.253794,0.642701 -1.949176,1.854351 -0.684845,1.201114 -0.684845,2.686701 0,2.254722 1.496124,3.634949 1.50666,1.369691 3.961567,1.369691 0.67431,0 1.285403,-0.115897 0.621629,-0.115897 1.475048,-0.442515 v -2.444372 h -2.433832 v -2.223113 h 5.278582 v 6.068784 q -1.08522,0.758598 -2.61295,1.190578 -1.517199,0.421443 -3.160828,0.421443 -2.328475,0 -4.22497,-0.958784 -1.885959,-0.958783 -2.950103,-2.686701 -1.053609,-1.727918 -1.053609,-3.856207 0,-2.159897 1.064145,-3.908887 1.07468,-1.74899 2.981712,-2.71831 1.917567,-0.969319 4.267114,-0.969319 z"
   id="text1"
   aria-label="SVG" /><path
   style="font-weight:600;font-size:21.5779px;line-height:1;font-family:'Gill Sans';-inkscape-font-specification:'Gill Sans Semi-Bold';fill:#1a1a1a;stroke-width:1.15596"
   d="m 62.336115,33.215291 4.161753,9.450867 4.056392,-9.450867 h 2.981712 L 67.035208,48.12385 H 66.044816 L 59.333331,33.215291 Z m 13.981383,0.326619 q 0.600557,0 1.032536,0.431979 0.43198,0.431979 0.43198,1.032536 0,0.579485 -0.43198,1.032537 -0.421443,0.442515 -1.032536,0.442515 -0.590021,0 -1.032536,-0.442515 -0.43198,-0.453052 -0.43198,-1.032537 0,-0.611093 0.442516,-1.032536 0.442515,-0.431979 1.022,-0.431979 z m 1.295938,4.551588 V 47.9342 H 75.02156 v -9.840702 z m 7.080249,-0.18965 q 2.170433,0 3.434764,1.390763 1.26433,1.390764 1.26433,3.845671 v 0.389835 h -6.964352 q 0.158041,1.317011 0.979856,2.033464 0.832351,0.705918 2.275794,0.705918 0.927175,0 1.780598,-0.316082 0.863959,-0.326619 1.780598,-0.979856 v 1.928103 q -1.727917,1.222186 -4.193361,1.222186 -2.328474,0 -3.803526,-1.401299 -1.475052,-1.4013 -1.475052,-3.729774 0,-2.244186 1.359155,-3.666557 1.369691,-1.422372 3.561196,-1.422372 z m 2.265258,4.056393 Q 86.853582,40.88556 86.305706,40.285003 85.75783,39.67391 84.799046,39.67391 q -0.979856,0 -1.580413,0.579485 -0.59002,0.579485 -0.748062,1.706846 z m 5.868599,-3.866743 2.28633,5.678949 2.328475,-5.678949 h 1.685773 l 2.3074,5.678949 2.28633,-5.678949 h 2.69724 l -4.38301,10.030352 h -1.09575 L 98.285233,42.107746 95.63014,48.12385 H 94.55546 L 90.130304,38.093498 Z"
   id="text1-0"
   aria-label="View" /></svg>
