<svg xmlns="http://www.w3.org/2000/svg" width="1em" height="1em" fill="currentColor" stroke="currentColor" stroke-width="0" aria-hidden="true" class="chakra-icon css-kkoiw7" viewBox="0 0 256 256">
    <path stroke="none" d="M160.022 79.768h72c4.432 0 8 3.568 8 8v72c0 4.432-3.568 8-8 8h-72c-4.432 0-8-3.568-8-8v-72c0-4.432 3.568-8 8-8M81.07 103.693h48c4.432 0 8 3.568 8 8v48c0 4.432-3.568 8-8 8h-48c-4.432 0-8-3.568-8-8v-48c0-4.432 3.568-8 8-8m-56.845 24.023h24c4.432 0 8 3.568 8 8v24c0 4.432-3.568 8-8 8h-24c-4.432 0-8-3.568-8-8v-24c0-4.432 3.568-8 8-8" style="fill:#000;fill-opacity:1"/>
</svg>
