<svg xmlns="http://www.w3.org/2000/svg" xml:space="preserve" width="63.999" height="44.547">
    <path d="M32.17 43.246c-18.151 0-28.568-17.67-30.37-21.004 1.637-3.345 11.152-20.94 30.37-20.94 19.217 0 28.732 17.59 30.37 20.94-1.803 3.333-12.225 21.004-30.37 21.004" style="fill:#fafafa;stroke-width:.53337"/>
    <path d="M32.17 2.603c8.432 0 15.915 3.424 22.24 10.182a43.2 43.2 0 0 1 6.663 9.425c-2.406 4.261-12.295 19.729-28.904 19.729-7.936 0-15.27-3.44-21.81-10.225a48.7 48.7 0 0 1-7.093-9.504c.933-1.82 3.126-5.654 6.662-9.425C16.254 6.027 23.737 2.603 32.169 2.603m0-2.603C9.896 0 .35 22.274.35 22.274s10.8 22.273 31.82 22.273 31.816-22.273 31.816-22.273S54.438 0 32.169 0" style="fill:#b0bec5;stroke-width:.53337"/>
    <path d="M32.17 7.873c14.384 0 24.252 8.805 28.62 14.78.512.698 1.061-2.662.597-3.393-4.181-6.54-13.553-17.553-29.212-17.553-15.66 0-25.042 11.02-29.224 17.558-.469.731.16 3.643.752 3.009C8.258 17.383 17.78 7.873 32.17 7.873" style="fill:#b0bec5;stroke-width:.53337"/>
    <path d="M49.85 20.561a17.68 17.68 0 0 1-17.68 17.682A17.68 17.68 0 0 1 14.487 20.56 17.68 17.68 0 0 1 32.17 2.881a17.68 17.68 0 0 1 17.682 17.68" style="fill:#9c7a63;stroke-width:.53337"/>
    <path d="M32.17 7.873c5.797 0 10.859 1.429 15.126 3.53-3.1-5.11-8.716-8.517-15.127-8.517-6.55 0-12.267 3.568-15.318 8.859 4.272-2.251 9.377-3.872 15.318-3.872" style="fill:#806451;stroke-width:.53337"/>
    <path d="M40.4 20.561a8.23 8.23 0 0 1-8.23 8.23 8.23 8.23 0 0 1-8.23-8.23 8.23 8.23 0 0 1 8.23-8.23 8.23 8.23 0 0 1 8.23 8.23" style="fill:#212121;stroke-width:.53337"/>
    <circle cx="45.258" cy="19.804" r="4.118" style="fill:#d9baa5;stroke-width:.53337"/>
    <path d="M1.709 23.986a1.7 1.7 0 0 1-.822-.214 1.71 1.71 0 0 1-.677-2.32C.663 20.625 11.56.005 32.17.005s31.185 20.21 31.623 21.02a1.713 1.713 0 0 1-.688 2.32 1.713 1.713 0 0 1-2.32-.687c-.096-.182-10.07-18.06-28.621-18.06-18.556 0-28.86 18.316-28.962 18.502a1.7 1.7 0 0 1-1.493.886" style="fill:#616161;stroke-width:.53337"/>
</svg>
